<svg width="1440" height="652" viewBox="0 0 1440 652" fill="none" xmlns="http://www.w3.org/2000/svg">
<rect width="1440" height="652" fill="#F0F4F8"/>
<path d="M536.187 329.964C536.187 327.116 536.763 324.624 537.916 322.488C539.069 320.318 540.645 318.64 542.646 317.453C544.68 316.266 546.951 315.673 549.46 315.673C551.63 315.673 553.647 316.182 555.512 317.199C557.377 318.182 558.801 319.487 559.784 321.115V306.366H564.463V344H559.784V338.762C558.869 340.423 557.513 341.796 555.716 342.881C553.919 343.932 551.817 344.458 549.409 344.458C546.934 344.458 544.68 343.847 542.646 342.627C540.645 341.406 539.069 339.694 537.916 337.49C536.763 335.287 536.187 332.778 536.187 329.964ZM559.784 330.015C559.784 327.912 559.36 326.082 558.513 324.522C557.665 322.962 556.512 321.776 555.054 320.962C553.63 320.115 552.054 319.691 550.325 319.691C548.596 319.691 547.019 320.098 545.595 320.911C544.171 321.725 543.035 322.912 542.188 324.471C541.34 326.031 540.916 327.862 540.916 329.964C540.916 332.1 541.34 333.964 542.188 335.558C543.035 337.117 544.171 338.321 545.595 339.169C547.019 339.982 548.596 340.389 550.325 340.389C552.054 340.389 553.63 339.982 555.054 339.169C556.512 338.321 557.665 337.117 558.513 335.558C559.36 333.964 559.784 332.117 559.784 330.015ZM576.911 320.657C577.725 319.064 578.878 317.826 580.37 316.945C581.895 316.063 583.743 315.622 585.913 315.622V320.403H584.692C579.505 320.403 576.911 323.217 576.911 328.845V344H572.284V316.131H576.911V320.657ZM589.526 329.964C589.526 327.116 590.103 324.624 591.255 322.488C592.408 320.318 593.985 318.64 595.985 317.453C598.019 316.266 600.274 315.673 602.749 315.673C605.19 315.673 607.309 316.199 609.106 317.25C610.903 318.301 612.242 319.623 613.123 321.216V316.131H617.802V344H613.123V338.813C612.208 340.44 610.835 341.796 609.004 342.881C607.207 343.932 605.105 344.458 602.698 344.458C600.223 344.458 597.985 343.847 595.985 342.627C593.985 341.406 592.408 339.694 591.255 337.49C590.103 335.287 589.526 332.778 589.526 329.964ZM613.123 330.015C613.123 327.912 612.7 326.082 611.852 324.522C611.004 322.962 609.852 321.776 608.394 320.962C606.97 320.115 605.393 319.691 603.664 319.691C601.935 319.691 600.359 320.098 598.935 320.911C597.511 321.725 596.375 322.912 595.527 324.471C594.68 326.031 594.256 327.862 594.256 329.964C594.256 332.1 594.68 333.964 595.527 335.558C596.375 337.117 597.511 338.321 598.935 339.169C600.359 339.982 601.935 340.389 603.664 340.389C605.393 340.389 606.97 339.982 608.394 339.169C609.852 338.321 611.004 337.117 611.852 335.558C612.7 333.964 613.123 332.117 613.123 330.015ZM637.116 315.673C639.524 315.673 641.626 316.199 643.423 317.25C645.253 318.301 646.61 319.623 647.491 321.216V316.131H652.17V344.61C652.17 347.153 651.627 349.408 650.543 351.374C649.458 353.374 647.898 354.934 645.864 356.053C643.863 357.172 641.524 357.731 638.846 357.731C635.184 357.731 632.133 356.867 629.691 355.138C627.25 353.408 625.809 351.052 625.369 348.068H629.946C630.454 349.764 631.505 351.12 633.099 352.137C634.692 353.188 636.608 353.714 638.846 353.714C641.388 353.714 643.457 352.917 645.05 351.323C646.677 349.73 647.491 347.492 647.491 344.61V338.762C646.576 340.389 645.22 341.745 643.423 342.83C641.626 343.915 639.524 344.458 637.116 344.458C634.641 344.458 632.387 343.847 630.353 342.627C628.352 341.406 626.776 339.694 625.623 337.49C624.47 335.287 623.894 332.778 623.894 329.964C623.894 327.116 624.47 324.624 625.623 322.488C626.776 320.318 628.352 318.64 630.353 317.453C632.387 316.266 634.641 315.673 637.116 315.673ZM647.491 330.015C647.491 327.912 647.067 326.082 646.22 324.522C645.372 322.962 644.219 321.776 642.762 320.962C641.338 320.115 639.761 319.691 638.032 319.691C636.303 319.691 634.726 320.098 633.302 320.911C631.878 321.725 630.742 322.912 629.895 324.471C629.047 326.031 628.623 327.862 628.623 329.964C628.623 332.1 629.047 333.964 629.895 335.558C630.742 337.117 631.878 338.321 633.302 339.169C634.726 339.982 636.303 340.389 638.032 340.389C639.761 340.389 641.338 339.982 642.762 339.169C644.219 338.321 645.372 337.117 646.22 335.558C647.067 333.964 647.491 332.117 647.491 330.015ZM671.82 329.964C671.82 327.116 672.396 324.624 673.549 322.488C674.702 320.318 676.278 318.64 678.279 317.453C680.313 316.266 682.567 315.673 685.042 315.673C687.484 315.673 689.603 316.199 691.399 317.25C693.196 318.301 694.536 319.623 695.417 321.216V316.131H700.096V344H695.417V338.813C694.502 340.44 693.129 341.796 691.298 342.881C689.501 343.932 687.399 344.458 684.992 344.458C682.517 344.458 680.279 343.847 678.279 342.627C676.278 341.406 674.702 339.694 673.549 337.49C672.396 335.287 671.82 332.778 671.82 329.964ZM695.417 330.015C695.417 327.912 694.993 326.082 694.146 324.522C693.298 322.962 692.145 321.776 690.688 320.962C689.264 320.115 687.687 319.691 685.958 319.691C684.229 319.691 682.652 320.098 681.228 320.911C679.804 321.725 678.668 322.912 677.821 324.471C676.973 326.031 676.549 327.862 676.549 329.964C676.549 332.1 676.973 333.964 677.821 335.558C678.668 337.117 679.804 338.321 681.228 339.169C682.652 339.982 684.229 340.389 685.958 340.389C687.687 340.389 689.264 339.982 690.688 339.169C692.145 338.321 693.298 337.117 694.146 335.558C694.993 333.964 695.417 332.117 695.417 330.015ZM721.495 315.622C724.886 315.622 727.632 316.656 729.734 318.724C731.836 320.759 732.887 323.708 732.887 327.573V344H728.31V328.235C728.31 325.454 727.615 323.335 726.225 321.878C724.835 320.386 722.936 319.64 720.529 319.64C718.088 319.64 716.138 320.403 714.68 321.928C713.257 323.454 712.545 325.675 712.545 328.591V344H707.917V316.131H712.545V320.098C713.46 318.674 714.697 317.572 716.257 316.792C717.851 316.012 719.597 315.622 721.495 315.622ZM738.718 329.964C738.718 327.116 739.294 324.624 740.447 322.488C741.599 320.318 743.176 318.64 745.176 317.453C747.211 316.266 749.482 315.673 751.991 315.673C754.161 315.673 756.178 316.182 758.043 317.199C759.908 318.182 761.332 319.487 762.315 321.115V306.366H766.994V344H762.315V338.762C761.399 340.423 760.043 341.796 758.246 342.881C756.449 343.932 754.347 344.458 751.94 344.458C749.465 344.458 747.211 343.847 745.176 342.627C743.176 341.406 741.599 339.694 740.447 337.49C739.294 335.287 738.718 332.778 738.718 329.964ZM762.315 330.015C762.315 327.912 761.891 326.082 761.043 324.522C760.196 322.962 759.043 321.776 757.585 320.962C756.161 320.115 754.585 319.691 752.856 319.691C751.126 319.691 749.55 320.098 748.126 320.911C746.702 321.725 745.566 322.912 744.719 324.471C743.871 326.031 743.447 327.862 743.447 329.964C743.447 332.1 743.871 333.964 744.719 335.558C745.566 337.117 746.702 338.321 748.126 339.169C749.55 339.982 751.126 340.389 752.856 340.389C754.585 340.389 756.161 339.982 757.585 339.169C759.043 338.321 760.196 337.117 761.043 335.558C761.891 333.964 762.315 332.117 762.315 330.015ZM786.644 329.964C786.644 327.116 787.22 324.624 788.373 322.488C789.525 320.318 791.102 318.64 793.102 317.453C795.137 316.266 797.408 315.673 799.917 315.673C802.087 315.673 804.104 316.182 805.969 317.199C807.834 318.182 809.258 319.487 810.241 321.115V306.366H814.92V344H810.241V338.762C809.325 340.423 807.969 341.796 806.172 342.881C804.375 343.932 802.273 344.458 799.866 344.458C797.391 344.458 795.137 343.847 793.102 342.627C791.102 341.406 789.525 339.694 788.373 337.49C787.22 335.287 786.644 332.778 786.644 329.964ZM810.241 330.015C810.241 327.912 809.817 326.082 808.969 324.522C808.122 322.962 806.969 321.776 805.511 320.962C804.087 320.115 802.511 319.691 800.782 319.691C799.052 319.691 797.476 320.098 796.052 320.911C794.628 321.725 793.492 322.912 792.645 324.471C791.797 326.031 791.373 327.862 791.373 329.964C791.373 332.1 791.797 333.964 792.645 335.558C793.492 337.117 794.628 338.321 796.052 339.169C797.476 339.982 799.052 340.389 800.782 340.389C802.511 340.389 804.087 339.982 805.511 339.169C806.969 338.321 808.122 337.117 808.969 335.558C809.817 333.964 810.241 332.117 810.241 330.015ZM827.368 320.657C828.182 319.064 829.335 317.826 830.826 316.945C832.352 316.063 834.2 315.622 836.37 315.622V320.403H835.149C829.962 320.403 827.368 323.217 827.368 328.845V344H822.74V316.131H827.368V320.657ZM853.867 344.458C851.256 344.458 848.883 343.864 846.747 342.678C844.645 341.491 842.983 339.813 841.763 337.643C840.576 335.439 839.983 332.896 839.983 330.015C839.983 327.167 840.593 324.658 841.814 322.488C843.068 320.284 844.763 318.606 846.899 317.453C849.035 316.266 851.426 315.673 854.07 315.673C856.715 315.673 859.105 316.266 861.241 317.453C863.377 318.606 865.055 320.267 866.276 322.437C867.53 324.607 868.157 327.133 868.157 330.015C868.157 332.896 867.513 335.439 866.225 337.643C864.97 339.813 863.258 341.491 861.088 342.678C858.918 343.864 856.511 344.458 853.867 344.458ZM853.867 340.389C855.528 340.389 857.088 339.999 858.545 339.22C860.003 338.44 861.173 337.27 862.055 335.71C862.97 334.151 863.428 332.252 863.428 330.015C863.428 327.777 862.987 325.878 862.105 324.319C861.224 322.759 860.071 321.606 858.647 320.86C857.223 320.081 855.681 319.691 854.019 319.691C852.324 319.691 850.764 320.081 849.34 320.86C847.95 321.606 846.832 322.759 845.984 324.319C845.136 325.878 844.713 327.777 844.713 330.015C844.713 332.286 845.119 334.202 845.933 335.761C846.781 337.321 847.9 338.491 849.29 339.27C850.68 340.016 852.205 340.389 853.867 340.389ZM878.87 321.267C879.785 319.674 881.142 318.352 882.939 317.301C884.769 316.216 886.888 315.673 889.296 315.673C891.771 315.673 894.008 316.266 896.009 317.453C898.043 318.64 899.636 320.318 900.789 322.488C901.942 324.624 902.518 327.116 902.518 329.964C902.518 332.778 901.942 335.287 900.789 337.49C899.636 339.694 898.043 341.406 896.009 342.627C894.008 343.847 891.771 344.458 889.296 344.458C886.922 344.458 884.82 343.932 882.989 342.881C881.193 341.796 879.819 340.457 878.87 338.864V357.223H874.242V316.131H878.87V321.267ZM897.789 329.964C897.789 327.862 897.365 326.031 896.517 324.471C895.67 322.912 894.517 321.725 893.059 320.911C891.635 320.098 890.058 319.691 888.329 319.691C886.634 319.691 885.058 320.115 883.6 320.962C882.176 321.776 881.023 322.979 880.141 324.573C879.294 326.133 878.87 327.946 878.87 330.015C878.87 332.117 879.294 333.964 880.141 335.558C881.023 337.117 882.176 338.321 883.6 339.169C885.058 339.982 886.634 340.389 888.329 340.389C890.058 340.389 891.635 339.982 893.059 339.169C894.517 338.321 895.67 337.117 896.517 335.558C897.365 333.964 897.789 332.1 897.789 329.964Z" fill="url(#paint0_linear_1_2)"/>
<path d="M457.272 422.971C454.495 421.164 450.778 421.95 448.971 424.728C447.164 427.505 447.95 431.222 450.728 433.029L454 428L457.272 422.971ZM963.999 428.104C964.056 424.791 961.417 422.058 958.104 422.001L904.112 421.067C900.799 421.01 898.066 423.649 898.009 426.963C897.952 430.276 900.591 433.008 903.904 433.065L951.897 433.895L951.067 481.888C951.01 485.201 953.649 487.934 956.962 487.991C960.276 488.048 963.008 485.409 963.065 482.096L963.999 428.104ZM454 428C450.728 433.029 450.729 433.03 450.731 433.031C450.732 433.032 450.735 433.034 450.738 433.036C450.743 433.039 450.751 433.044 450.761 433.051C450.781 433.064 450.81 433.083 450.848 433.107C450.923 433.155 451.033 433.227 451.178 433.32C451.467 433.505 451.893 433.778 452.451 434.133C453.567 434.841 455.21 435.875 457.336 437.187C461.587 439.812 467.77 443.553 475.528 448.038C491.04 457.006 512.877 468.963 538.186 480.925C588.582 504.744 653.598 529 710 529V523V517C656.402 517 593.418 493.756 543.314 470.075C518.373 458.287 496.835 446.494 481.534 437.649C473.886 433.228 467.804 429.547 463.641 426.977C461.559 425.692 459.958 424.684 458.882 424.001C458.344 423.66 457.937 423.399 457.667 423.225C457.532 423.139 457.431 423.074 457.365 423.031C457.332 423.01 457.308 422.994 457.292 422.984C457.284 422.979 457.279 422.975 457.276 422.973C457.274 422.972 457.273 422.971 457.272 422.971C457.272 422.971 457.272 422.971 454 428ZM710 523V529C786.108 529 849.103 504.846 893.007 480.76C914.969 468.713 932.197 456.659 943.958 447.596C949.84 443.064 954.359 439.276 957.424 436.606C958.956 435.271 960.125 434.214 960.92 433.484C961.317 433.119 961.621 432.835 961.829 432.638C961.934 432.54 962.014 432.463 962.071 432.409C962.099 432.382 962.121 432.361 962.138 432.345C962.146 432.337 962.153 432.331 962.158 432.326C962.16 432.323 962.163 432.321 962.164 432.32C962.167 432.317 962.169 432.315 958 428C953.831 423.685 953.833 423.683 953.833 423.683C953.833 423.683 953.834 423.682 953.833 423.683C953.832 423.684 953.83 423.686 953.826 423.69C953.819 423.697 953.805 423.71 953.785 423.729C953.746 423.766 953.684 423.826 953.597 423.907C953.425 424.07 953.158 424.319 952.798 424.65C952.079 425.311 950.989 426.296 949.54 427.558C946.642 430.083 942.309 433.717 936.633 438.091C925.278 446.841 908.567 458.537 887.235 470.24C844.554 493.654 783.548 517 710 517V523Z" fill="#0B1A5A"/>
<defs>
<linearGradient id="paint0_linear_1_2" x1="534" y1="326" x2="1375.48" y2="478.854" gradientUnits="userSpaceOnUse">
<stop stop-color="#1A5DC9"/>
<stop offset="1" stop-color="#7D9CE7"/>
</linearGradient>
</defs>
</svg>
